<?xml version="1.0" standalone="no"?>
<!DOCTYPE svg PUBLIC "-//W3C//DTD SVG 20010904//EN"
 "http://www.w3.org/TR/2001/REC-SVG-20010904/DTD/svg10.dtd">
<svg version="1.0" xmlns="http://www.w3.org/2000/svg"
 width="100.000000pt" height="100.000000pt" viewBox="0 0 100.000000 100.000000"
 preserveAspectRatio="xMidYMid meet">

<g transform="translate(0.000000,100.000000) scale(0.100000,-0.100000)"
fill="#000000" stroke="none">
<path d="M323 678 c-209 -208 -313 -319 -313 -333 0 -12 19 -40 43 -63 l43
-43 38 16 c42 18 70 13 103 -18 26 -23 31 -84 11 -117 -11 -17 -7 -25 32 -65
24 -25 53 -45 63 -45 19 0 187 155 187 172 0 5 -7 11 -16 15 -11 4 -40 -19
-95 -73 l-79 -78 -29 28 c-24 23 -28 33 -21 47 15 27 12 86 -5 119 -26 51 -98
77 -150 56 -31 -13 -34 -13 -59 13 -14 15 -26 31 -26 37 0 16 454 462 475 466
11 2 20 10 20 18 0 8 26 39 58 69 l57 54 30 -28 c24 -23 27 -31 18 -48 -5 -11
-8 -40 -5 -66 7 -64 58 -111 119 -111 24 0 50 5 58 10 11 7 22 2 42 -17 16
-15 28 -32 28 -38 0 -17 -104 -115 -122 -115 -19 0 -30 -44 -14 -60 14 -14
176 146 176 175 0 12 -20 40 -44 64 -38 37 -47 41 -64 32 -11 -6 -37 -11 -57
-11 -68 0 -104 67 -73 135 11 24 8 29 -32 70 -24 25 -53 45 -64 45 -13 0 -131
-110 -333 -312z"/>
<path d="M565 779 c-8 -12 23 -49 41 -49 23 0 25 19 4 40 -22 22 -36 25 -45 9z"/>
<path d="M652 689 c2 -12 13 -28 25 -36 21 -14 23 -14 30 2 4 12 -1 24 -16 37
-30 24 -43 23 -39 -3z"/>
<path d="M733 615 c-8 -23 32 -64 48 -48 15 15 6 39 -21 53 -16 9 -22 8 -27
-5z"/>
<path d="M683 419 c-207 -103 -133 -410 98 -409 39 0 126 38 151 66 27 31 58
106 58 143 1 161 -166 270 -307 200z m154 -30 c119 -45 150 -203 57 -291 -145
-136 -364 36 -271 212 39 73 135 109 214 79z"/>
<path d="M690 297 c0 -8 11 -24 25 -37 14 -13 25 -29 25 -35 0 -6 -11 -22 -25
-35 -14 -13 -25 -29 -25 -37 0 -21 25 -15 50 12 13 14 29 25 35 25 6 0 22 -11
35 -25 25 -27 50 -33 50 -12 0 8 -11 24 -25 37 -14 13 -25 29 -25 35 0 6 11
22 25 35 14 13 25 29 25 37 0 21 -25 15 -50 -12 -13 -14 -29 -25 -35 -25 -6 0
-22 11 -35 25 -25 27 -50 33 -50 12z"/>
</g>
</svg>
